<svg viewBox="0 0 14 16" xmlns="http://www.w3.org/2000/svg" xmlns:xlink="http://www.w3.org/1999/xlink" width="14.000000" height="16.000000" fill="none">
	<rect id="Frame" width="14.000000" height="16.000000" x="0.000000" y="0.000000" fill="rgb(255,255,255)" fill-opacity="0" />
	<path id="Vector" d="M0 0L14 0L14 16L0 16L0 0Z" fill-rule="nonzero" />
	<path id="Vector" d="M2.33317 12.6667L11.6665 12.6667L11.6665 8L12.8332 8L12.8332 13.3333C12.8332 13.5101 12.7717 13.6797 12.6623 13.8047C12.5529 13.9298 12.4045 14 12.2498 14L1.74984 14C1.59513 14 1.44675 13.9298 1.33736 13.8047C1.22796 13.6797 1.1665 13.5101 1.1665 13.3333L1.1665 8L2.33317 8L2.33317 12.6667ZM8.1665 6L11.0832 6L6.99984 10.6667L2.9165 6L5.83317 6L5.83317 2L8.1665 2L8.1665 6Z" fill="rgb(79,79,79)" fill-rule="nonzero" />
</svg>
