<svg viewBox="0 0 24.9863 22.8042" xmlns="http://www.w3.org/2000/svg" xmlns:xlink="http://www.w3.org/1999/xlink" width="24.986328" height="22.804199" fill="none" customFrame="#000000">
	<defs>
		<clipPath id="clipPath_3">
			<rect width="14.575342" height="13.302491" x="5.206055" y="4.750488" fill="rgb(255,255,255)" />
		</clipPath>
		<clipPath id="clipPath_4">
			<rect width="14.575342" height="13.302491" x="5.206055" y="4.750488" fill="rgb(255,255,255)" />
		</clipPath>
		<clipPath id="clipPath_5">
			<rect width="14.575342" height="13.302491" x="5.206055" y="4.750488" fill="rgb(255,255,255)" />
		</clipPath>
	</defs>
	<g id="Instagram">
		<ellipse id="Ellipse 9" rx="12.493151" ry="11.402135" cx="12.4931507" cy="11.4021349" fill="rgb(255,180,0)" />
		<g id="Icons-instagram" customFrame="url(#clipPath_3)">
			<rect id="Icons-instagram" width="14.575342" height="13.302491" x="5.206055" y="4.750488" fill="rgb(255,255,255)" fill-opacity="0" />
			<g id="Icons-instagram" customFrame="url(#clipPath_4)">
				<rect id="Icons-instagram" width="14.575342" height="13.302491" x="5.206055" y="4.750488" fill="rgb(255,255,255)" fill-opacity="0" />
				<g id="Icons-instagram" clip-path="url(#clipPath_5)" customFrame="url(#clipPath_5)">
					<rect id="Icons-instagram" width="14.575342" height="13.302491" x="5.206055" y="4.750488" fill="rgb(255,255,255)" fill-opacity="0" />
					<path id="Vector" d="M5.20605 4.75049L19.7814 4.75049L19.7814 18.053L5.20605 18.053L5.20605 4.75049Z" fill-rule="nonzero" />
					<path id="Vector" d="M12.4935 5.85938C14.1435 5.85938 14.3494 5.86492 14.9968 5.89263C15.6436 5.92034 16.0839 6.01291 16.4713 6.15037C16.8721 6.29115 17.2098 6.48182 17.5475 6.78944C17.8563 7.06652 18.0952 7.40168 18.2477 7.77161C18.3977 8.12468 18.4997 8.52708 18.5301 9.11738C18.5586 9.70823 18.5665 9.89613 18.5665 11.4021C18.5665 12.908 18.5605 13.0959 18.5301 13.6868C18.4997 14.2771 18.3977 14.6789 18.2477 15.0326C18.0957 15.4027 17.8567 15.7379 17.5475 16.0147C17.2438 16.2965 16.8766 16.5145 16.4713 16.6538C16.0845 16.7907 15.6436 16.8838 14.9968 16.9115C14.3494 16.9376 14.1435 16.9448 12.4935 16.9448C10.8434 16.9448 10.6375 16.9392 9.99015 16.9115C9.34337 16.8838 8.90308 16.7907 8.51562 16.6538C8.11013 16.5149 7.74284 16.2968 7.43947 16.0147C7.1306 15.7377 6.89164 15.4025 6.73925 15.0326C6.58863 14.6795 6.48721 14.2771 6.45685 13.6868C6.42831 13.0959 6.42041 12.908 6.42041 11.4021C6.42041 9.89613 6.42648 9.70823 6.45685 9.11738C6.48721 8.52652 6.58863 8.12523 6.73925 7.77161C6.89122 7.40145 7.13023 7.0662 7.43947 6.78944C7.74292 6.50745 8.1102 6.28934 8.51562 6.15037C8.90308 6.01291 9.34277 5.92034 9.99015 5.89263C10.6375 5.86658 10.8434 5.85938 12.4935 5.85938ZM12.4935 8.63073C11.6881 8.63073 10.9158 8.92271 10.3463 9.44244C9.77686 9.96217 9.45694 10.6671 9.45694 11.4021C9.45694 12.1371 9.77686 12.842 10.3463 13.3617C10.9158 13.8815 11.6881 14.1734 12.4935 14.1734C13.2988 14.1734 14.0712 13.8815 14.6406 13.3617C15.2101 12.842 15.53 12.1371 15.53 11.4021C15.53 10.6671 15.2101 9.96217 14.6406 9.44244C14.0712 8.92271 13.2988 8.63073 12.4935 8.63073ZM16.441 8.49216C16.441 8.30841 16.361 8.13218 16.2186 8.00225C16.0762 7.87232 15.8832 7.79932 15.6818 7.79932C15.4805 7.79932 15.2874 7.87232 15.145 8.00225C15.0027 8.13218 14.9227 8.30841 14.9227 8.49216C14.9227 8.67591 15.0027 8.85214 15.145 8.98207C15.2874 9.112 15.4805 9.185 15.6818 9.185C15.8832 9.185 16.0762 9.112 16.2186 8.98207C16.361 8.85214 16.441 8.67591 16.441 8.49216ZM12.4935 9.73927C12.9767 9.73927 13.4401 9.91446 13.7818 10.2263C14.1234 10.5381 14.3154 10.9611 14.3154 11.4021C14.3154 11.8431 14.1234 12.266 13.7818 12.5779C13.4401 12.8897 12.9767 13.0649 12.4935 13.0649C12.0103 13.0649 11.5469 12.8897 11.2052 12.5779C10.8635 12.266 10.6716 11.8431 10.6716 11.4021C10.6716 10.9611 10.8635 10.5381 11.2052 10.2263C11.5469 9.91446 12.0103 9.73927 12.4935 9.73927Z" fill="rgb(43,43,43)" fill-rule="nonzero" />
				</g>
			</g>
		</g>
	</g>
</svg>
