<svg viewBox="0 0 24.9863 22.8042" xmlns="http://www.w3.org/2000/svg" xmlns:xlink="http://www.w3.org/1999/xlink" width="24.986328" height="22.804199" fill="none" customFrame="#000000">
	<defs>
		<clipPath id="clipPath_9">
			<rect width="14.575342" height="13.302491" x="5.205566" y="4.750488" fill="rgb(255,255,255)" />
		</clipPath>
		<clipPath id="clipPath_10">
			<rect width="14.575342" height="13.302491" x="5.205566" y="4.750488" fill="rgb(255,255,255)" />
		</clipPath>
		<clipPath id="clipPath_11">
			<rect width="14.575342" height="13.302491" x="5.205566" y="4.750488" fill="rgb(255,255,255)" />
		</clipPath>
	</defs>
	<g id="Linkeding">
		<ellipse id="Ellipse 18" rx="12.493151" ry="11.402135" cx="12.4931507" cy="11.4021349" fill="rgb(255,180,0)" />
		<g id="Icons-linkedin" customFrame="url(#clipPath_9)">
			<rect id="Icons-linkedin" width="14.575342" height="13.302491" x="5.205566" y="4.750488" fill="rgb(255,255,255)" fill-opacity="0" />
			<g id="Icons-linkedin" customFrame="url(#clipPath_10)">
				<rect id="Icons-linkedin" width="14.575342" height="13.302491" x="5.205566" y="4.750488" fill="rgb(255,255,255)" fill-opacity="0" />
				<g id="Icons-linkedin" clip-path="url(#clipPath_11)" customFrame="url(#clipPath_11)">
					<rect id="Icons-linkedin" width="14.575342" height="13.302491" x="5.205566" y="4.750488" fill="rgb(255,255,255)" fill-opacity="0" />
					<path id="Vector" d="M5.20557 4.75049L19.7809 4.75049L19.7809 18.053L5.20557 18.053L5.20557 4.75049Z" fill-rule="nonzero" />
					<path id="Vector" d="M9.42043 7.52218C9.42027 7.81618 9.29215 8.09809 9.06425 8.30588C8.83636 8.51366 8.52735 8.63032 8.20522 8.63017C7.88308 8.63002 7.5742 8.51309 7.34653 8.30509C7.11886 8.0971 6.99105 7.81508 6.99121 7.52107C6.99137 7.22707 7.11949 6.94517 7.34739 6.73738C7.57529 6.52959 7.88429 6.41294 8.20643 6.41309C8.52857 6.41323 8.83744 6.53017 9.06511 6.73816C9.29278 6.94616 9.4206 7.22818 9.42043 7.52218ZM9.45687 9.45104L7.02765 9.45104L7.02765 16.3905L9.45687 16.3905L9.45687 9.45104ZM13.295 9.45104L10.878 9.45104L10.878 16.3905L13.2708 16.3905L13.2708 12.749C13.2708 10.7203 16.1676 10.5319 16.1676 12.749L16.1676 16.3905L18.5665 16.3905L18.5665 11.9951C18.5665 8.5753 14.2789 8.70278 13.2708 10.3822L13.295 9.45104Z" fill="rgb(43,43,43)" fill-rule="nonzero" />
				</g>
			</g>
		</g>
	</g>
</svg>
