<svg viewBox="0 0 24.9863 22.8042" xmlns="http://www.w3.org/2000/svg" xmlns:xlink="http://www.w3.org/1999/xlink" width="24.986328" height="22.804199" fill="none" customFrame="#000000">
	<defs>
		<clipPath id="clipPath_6">
			<rect width="14.575342" height="13.302491" x="5.205078" y="4.750488" fill="rgb(255,255,255)" />
		</clipPath>
		<clipPath id="clipPath_7">
			<rect width="14.575342" height="13.302491" x="5.205078" y="4.750488" fill="rgb(255,255,255)" />
		</clipPath>
		<clipPath id="clipPath_8">
			<rect width="14.575342" height="13.302491" x="5.205078" y="4.750488" fill="rgb(255,255,255)" />
		</clipPath>
	</defs>
	<g id="Twitter">
		<ellipse id="Ellipse 9" rx="12.493151" ry="11.402135" cx="12.4931507" cy="11.4021349" fill="rgb(255,180,0)" />
		<g id="Icons-twitter" customFrame="url(#clipPath_6)">
			<rect id="Icons-twitter" width="14.575342" height="13.302491" x="5.205078" y="4.750488" fill="rgb(255,255,255)" fill-opacity="0" />
			<g id="Icons-twitter" customFrame="url(#clipPath_7)">
				<rect id="Icons-twitter" width="14.575342" height="13.302491" x="5.205078" y="4.750488" fill="rgb(255,255,255)" fill-opacity="0" />
				<g id="Icons-twitter" clip-path="url(#clipPath_8)" customFrame="url(#clipPath_8)">
					<rect id="Icons-twitter" width="14.575342" height="13.302491" x="5.205078" y="4.750488" fill="rgb(255,255,255)" fill-opacity="0" />
					<path id="Vector" d="M5.20508 4.75049L19.7804 4.75049L19.7804 18.053L5.20508 18.053L5.20508 4.75049Z" fill-rule="nonzero" />
					<path id="Vector" d="M18.6644 7.88542C18.2007 8.0726 17.709 8.19552 17.2056 8.25013C17.7362 7.96049 18.1334 7.50465 18.3231 6.96755C17.8251 7.23803 17.2791 7.42759 16.7101 7.53013C16.3278 7.15688 15.8212 6.90933 15.2689 6.82598C14.7166 6.74263 14.1496 6.82815 13.6561 7.06923C13.1625 7.31032 12.7701 7.69347 12.5398 8.15912C12.3094 8.62476 12.2541 9.14682 12.3824 9.64412C11.3725 9.59793 10.3846 9.35841 9.48268 8.94112C8.5808 8.52383 7.78516 7.9381 7.14741 7.22196C6.92167 7.57583 6.80304 7.97811 6.80368 8.38759C6.80368 9.19128 7.25187 9.9013 7.93327 10.317C7.53002 10.3054 7.13565 10.206 6.78303 10.0271L6.78303 10.0559C6.78315 10.5912 6.98609 11.11 7.35745 11.5242C7.7288 11.9385 8.24571 12.2229 8.82054 12.329C8.44621 12.4216 8.0537 12.4352 7.67273 12.3689C7.8348 12.8296 8.15069 13.2326 8.57615 13.5213C9.00162 13.81 9.51538 13.9701 10.0455 13.9791C9.51863 14.3567 8.91539 14.6359 8.27025 14.8006C7.62511 14.9653 6.95072 15.0124 6.28564 14.9391C7.44663 15.6205 8.79813 15.9823 10.1785 15.9811C14.8505 15.9811 17.4054 12.4487 17.4054 9.38528C17.4054 9.28551 17.4024 9.18463 17.3975 9.08597C17.8948 8.75794 18.324 8.35157 18.665 7.88598L18.6644 7.88542Z" fill="rgb(43,43,43)" fill-rule="nonzero" />
				</g>
			</g>
		</g>
	</g>
</svg>
