<svg viewBox="0 0 24.9863 22.8042" xmlns="http://www.w3.org/2000/svg" xmlns:xlink="http://www.w3.org/1999/xlink" width="24.986328" height="22.804199" fill="none" customFrame="#000000">
	<defs>
		<clipPath id="clipPath_12">
			<rect width="14.575342" height="13.302491" x="5.205078" y="4.750488" fill="rgb(255,255,255)" />
		</clipPath>
		<clipPath id="clipPath_13">
			<rect width="14.575342" height="13.302491" x="5.205078" y="4.750488" fill="rgb(255,255,255)" />
		</clipPath>
		<clipPath id="clipPath_14">
			<rect width="14.575342" height="13.302491" x="5.205078" y="4.750488" fill="rgb(255,255,255)" />
		</clipPath>
	</defs>
	<g id="Youtube">
		<ellipse id="Ellipse 9" rx="12.493151" ry="11.402135" cx="12.4931507" cy="11.4021349" fill="rgb(255,180,0)" />
		<g id="Icons-Youtube" customFrame="url(#clipPath_12)">
			<rect id="Icons-Youtube" width="14.575342" height="13.302491" x="5.205078" y="4.750488" fill="rgb(255,255,255)" fill-opacity="0" />
			<g id="Icons-Youtube" customFrame="url(#clipPath_13)">
				<rect id="Icons-Youtube" width="14.575342" height="13.302491" x="5.205078" y="4.750488" fill="rgb(255,255,255)" fill-opacity="0" />
				<g id="Icons-Youtube" clip-path="url(#clipPath_14)" customFrame="url(#clipPath_14)">
					<rect id="Icons-Youtube" width="14.575342" height="13.302491" x="5.205078" y="4.750488" fill="rgb(255,255,255)" fill-opacity="0" />
					<path id="Vector" d="M5.20508 4.75049L19.7804 4.75049L19.7804 18.053L5.20508 18.053L5.20508 4.75049Z" fill-rule="nonzero" />
					<path id="Vector" d="M18.2885 8.35234C18.566 9.34005 18.566 11.4019 18.566 11.4019C18.566 11.4019 18.566 13.4638 18.2885 14.4515C18.1342 14.9975 17.683 15.427 17.1115 15.5723C16.0737 15.8361 12.493 15.8361 12.493 15.8361C12.493 15.8361 8.91413 15.8361 7.87442 15.5723C7.30052 15.4248 6.84989 14.9958 6.69746 14.4515C6.41992 13.4638 6.41992 11.4019 6.41992 11.4019C6.41992 11.4019 6.41992 9.34005 6.69746 8.35234C6.85172 7.80638 7.30294 7.37682 7.87442 7.23161C8.91413 6.96777 12.493 6.96777 12.493 6.96777C12.493 6.96777 16.0737 6.96777 17.1115 7.23161C17.6854 7.37904 18.1361 7.80805 18.2885 8.35234ZM11.2784 13.3419L14.9222 11.4019L11.2784 9.46199L11.2784 13.3419Z" fill="rgb(43,43,43)" fill-rule="nonzero" />
				</g>
			</g>
		</g>
	</g>
</svg>
